<?xml version="1.0" encoding="UTF-8" standalone="no"?>
<!-- Created with Inkscape (http://www.inkscape.org/) -->

<svg
   xmlns:dc="http://purl.org/dc/elements/1.1/"
   xmlns:cc="http://creativecommons.org/ns#"
   xmlns:rdf="http://www.w3.org/1999/02/22-rdf-syntax-ns#"
   xmlns:svg="http://www.w3.org/2000/svg"
   xmlns="http://www.w3.org/2000/svg"
   xmlns:sodipodi="http://sodipodi.sourceforge.net/DTD/sodipodi-0.dtd"
   xmlns:inkscape="http://www.inkscape.org/namespaces/inkscape"
   width="10"
   height="10"
   viewBox="0 0 2.6458333 2.6458333"
   version="1.1"
   id="svg8"
   inkscape:version="0.92.4 (33fec40, 2019-01-16)"
   sodipodi:docname="edit_icon10x10.svg">
  <defs
     id="defs2" />
  <sodipodi:namedview
     id="base"
     pagecolor="#ffffff"
     bordercolor="#666666"
     borderopacity="1.0"
     inkscape:pageopacity="0.0"
     inkscape:pageshadow="2"
     inkscape:zoom="31.678384"
     inkscape:cx="6.7283657"
     inkscape:cy="6.4060939"
     inkscape:document-units="mm"
     inkscape:current-layer="layer1"
     showgrid="false"
     units="px"
     inkscape:window-width="1299"
     inkscape:window-height="713"
     inkscape:window-x="67"
     inkscape:window-y="27"
     inkscape:window-maximized="1" />
  <metadata
     id="metadata5">
    <rdf:RDF>
      <cc:Work
         rdf:about="">
        <dc:format>image/svg+xml</dc:format>
        <dc:type
           rdf:resource="http://purl.org/dc/dcmitype/StillImage" />
        <dc:title></dc:title>
      </cc:Work>
    </rdf:RDF>
  </metadata>
  <g
     inkscape:label="Layer 1"
     inkscape:groupmode="layer"
     id="layer1"
     transform="translate(0,-294.35415)">
    <g
       id="g4583"
       transform="matrix(0.17765632,0,0,0.17765632,-0.02505666,244.39647)">
      <g
         transform="translate(7.4075372,0.59561798)"
         id="g4567">
        <path
           sodipodi:nodetypes="ccccc"
           inkscape:connector-curvature="0"
           id="rect4543"
           d="m -5.7128859,282.83466 c 2.2060512,-0.20581 3.3117847,-0.78887 8.4189902,0 -0.3596996,3.23502 0.7599182,5.90789 0,10.0226 -5.3942389,-0.75668 -6.5842155,0.96606 -8.9535293,-0.0668 0.1070976,-3.85493 1.2307416,-9.95669 0.5345391,-9.95578 z"
           style="fill:#50a3ff;fill-opacity:1;stroke:none;stroke-width:0.26458332;stroke-linecap:butt;stroke-linejoin:round;stroke-miterlimit:4;stroke-dasharray:none;stroke-opacity:1" />
        <path
           style="fill:none;stroke:#000000;stroke-width:0.26458332px;stroke-linecap:butt;stroke-linejoin:miter;stroke-opacity:1"
           d="m -4.5435818,284.33809 c 0.055681,0.0111 0.1106069,0.0271 0.1670433,0.0334 0.044272,0.005 0.08909,0 0.1336347,0 0.055681,0 0.1113623,0 0.1670436,0 0.055681,0 0.1113624,0 0.1670434,0 0.044545,0 0.089434,0.006 0.1336347,0 0.045561,-0.006 0.088812,-0.0234 0.1336349,-0.0334 0.032931,-0.007 0.2568059,-0.048 0.3006781,-0.0668 0.048447,-0.0208 0.1330121,-0.0883 0.1670436,-0.13364 0.014941,-0.0199 0.019595,-0.0461 0.033409,-0.0668 0.00874,-0.0131 0.022273,-0.0223 0.033409,-0.0334 0.011136,-0.0111 0.019322,-0.0264 0.033409,-0.0334 0.053454,-0.0267 0.0245,0.0156 0.033409,0.0334 0.00704,0.0141 0.028428,0.0185 0.033409,0.0334 0.00704,0.0211 -0.0054,0.0452 0,0.0668 0.00604,0.0242 0.027369,0.0427 0.033409,0.0668 0.00447,0.0179 -0.021675,0.13364 0.033409,0.13364 0.022273,0 -0.00996,-0.0469 0,-0.0668 0.00704,-0.0141 0.026366,-0.0193 0.033409,-0.0334 0.00343,-0.007 0.00471,-0.0955 0,-0.10023 -0.00787,-0.008 -0.023447,-0.005 -0.033409,0 -0.014086,0.007 -0.022273,0.0223 -0.033409,0.0334 -0.022273,0.0223 -0.044545,0.0446 -0.066817,0.0668 -0.022273,0.0223 -0.044545,0.0446 -0.066817,0.0668 -0.022273,0.0223 -0.047919,0.0416 -0.066817,0.0668 -0.014941,0.0199 -0.019595,0.0461 -0.033409,0.0668 -0.00874,0.0131 -0.026366,0.0193 -0.033409,0.0334 -0.00498,0.01 0,0.0223 0,0.0334 0,0.0356 -0.011136,0.0423 0.033409,0.0334 0.045024,-0.009 0.08909,-0.0223 0.1336349,-0.0334 0.044545,-0.0111 0.090642,-0.0173 0.1336347,-0.0334 0.3331649,-0.12494 -0.1067006,-0.0134 0.3340869,-0.13363 0.054783,-0.0149 0.1122605,-0.0185 0.1670435,-0.0334 0.2440117,-0.0813 0.1321233,-0.0497 0.3340869,-0.10023 0.024962,-0.006 0.1996261,-0.0463 0.2338608,-0.0668 0.027009,-0.0162 0.040609,-0.0493 0.066817,-0.0668 0.00927,-0.006 0.022272,0 0.033409,0 0.011136,0 0.025534,-0.008 0.033409,0 0.00787,0.008 0,0.0223 0,0.0334 0,0.0158 -0.00151,0.16552 0,0.16704 0.00787,0.008 0.023448,0.005 0.033409,0 0.051168,-0.0256 0.026126,-0.0595 0.066817,-0.10023 0.040315,-0.0403 0.1143176,-0.0739 0.1670435,-0.10022 0.022272,-0.0111 0.044545,-0.0223 0.066817,-0.0334 0.022272,-0.0111 0.0424,-0.0285 0.066817,-0.0334 6.16e-5,-10e-6 0.2240026,-0.003 0.2338608,0 0.00415,0.001 0.09736,0.0945 0.1002261,0.10023 0.00996,0.0199 -0.00996,0.0469 0,0.0668 0.007043,0.0141 0.0263654,0.0193 0.0334087,0.0334 0.0183682,0.0367 -0.032174,0.0674 0.0334087,0.10023 0.009961,0.005 0.0222724,0 0.0334087,0 0.0111363,0 0.0228439,0.004 0.0334087,0 0.0698834,-0.0233 0.13200631,-0.0729 0.20045214,-0.10023 0.0326971,-0.0131 0.067529,-0.0203 0.10022607,-0.0334 0.0462407,-0.0185 0.0873941,-0.0483 0.13363477,-0.0668 0.0326971,-0.0131 0.067529,-0.0203 0.10022607,-0.0334 0.0231204,-0.009 0.0426595,-0.0274 0.0668174,-0.0334 0.0302865,-0.008 0.12823357,0 0.16704344,0 0.01113623,0 0.02553419,-0.008 0.03340869,0 0.0080392,0.008 -0.0080392,0.12559 0,0.13363 0.0078745,0.008 0.02344814,-0.005 0.03340869,0 0.02817268,0.0141 0.03625982,0.0592 0.06681738,0.0668 0.03241119,0.008 0.06715316,-0.005 0.10022607,0 0.0454544,0.006 0.0880735,0.0277 0.13363475,0.0334 0.044201,0.006 0.0890899,0 0.13363477,0 0.0445449,0 0.0890898,0 0.13363477,0 0.15590721,0 0.31181445,0 0.46772169,0"
           id="path4545"
           inkscape:connector-curvature="0" />
        <path
           style="fill:none;stroke:#000000;stroke-width:0.26458332px;stroke-linecap:butt;stroke-linejoin:miter;stroke-opacity:1"
           d="m 1.0022631,284.27125 c 0.030753,0.0548 0.4964598,0.662 0,0"
           id="path4547"
           inkscape:connector-curvature="0" />
        <path
           style="fill:none;stroke:#000000;stroke-width:0.26458332px;stroke-linecap:butt;stroke-linejoin:miter;stroke-opacity:1"
           d="m -4.3765385,286.17556 c 0.1574901,-0.01 -0.039372,0.12768 0,0.16705 0.026117,0.0261 0.05812,-0.0291 0.066817,-0.0334 0.053639,-0.0268 0.1113623,-0.0445 0.1670436,-0.0668 0.055681,-0.0223 0.1106834,-0.0463 0.1670434,-0.0668 0.066191,-0.0241 0.136503,-0.0373 0.200452,-0.0668 0.081519,-0.0376 0.1513372,-0.0983 0.233861,-0.13364 0.074518,-0.0319 0.1581917,-0.0377 0.2338607,-0.0668 0.069725,-0.0268 0.132444,-0.0693 0.2004523,-0.10022 0.054595,-0.0248 0.1122418,-0.0425 0.1670433,-0.0668 0.088904,-0.0395 0.1402898,-0.0815 0.2338607,-0.10022 0.021839,-0.004 0.044545,0 0.066817,0 0.011136,0 0.025534,-0.008 0.033409,0 0.00787,0.008 0,0.0223 0,0.0334 0,0.0223 0,0.0446 0,0.0668 0,0.0223 0.0054,0.0452 0,0.0668 -0.012079,0.0483 -0.05705,0.0848 -0.066817,0.13363 -0.00655,0.0328 0,0.0668 0,0.10023 0,0.0557 0,0.11136 0,0.16704 0,0.0111 -0.00787,0.0255 0,0.0334 0.00787,0.008 0.022273,0 0.033408,0 0.011136,0 0.022844,0.004 0.033409,0 0.023624,-0.008 0.043697,-0.0242 0.066817,-0.0334 0.032697,-0.0131 0.068728,-0.0177 0.1002261,-0.0334 0.035913,-0.018 0.065364,-0.0469 0.1002261,-0.0668 0.043241,-0.0247 0.091402,-0.0404 0.1336347,-0.0668 0.047218,-0.0295 0.08909,-0.0668 0.1336348,-0.10023 0.044545,-0.0334 0.08909,-0.0668 0.1336347,-0.10022 0.044545,-0.0334 0.087305,-0.0693 0.1336348,-0.10023 0.054029,-0.036 0.1150956,-0.0613 0.1670434,-0.10022 0.037798,-0.0283 0.066817,-0.0668 0.1002261,-0.10023 0.073887,-0.0739 0.1074269,-0.12053 0.2004522,-0.16704 0.0011,-5.6e-4 0.1077084,-0.0464 0.1336347,-0.0334 0.067402,0.0337 0.019016,0.14288 0.033409,0.20045 0.00604,0.0242 0.028525,0.0424 0.033409,0.0668 0.00655,0.0328 -0.00655,0.0675 0,0.10022 0.00488,0.0244 0.022272,0.0446 0.033409,0.0668 0.011136,0.0223 0.022272,0.0445 0.033409,0.0668 0.011136,0.0223 0.022272,0.0445 0.033409,0.0668 0.011136,0.0223 0.015801,0.0492 0.033409,0.0668 0.0230243,0.023 0.16370627,0.0757 0.20045214,0.10023 0.013104,0.009 0.0203047,0.0247 0.0334087,0.0334 0.0575835,0.0384 0.0505,0.0334 0.10022607,0.0334 0.0111363,0 0.0234482,0.005 0.0334087,0 0.0119489,-0.006 0.12437245,-0.11975 0.13363477,-0.13364 0.0138128,-0.0207 0.0158006,-0.0492 0.0334087,-0.0668 0.017608,-0.0176 0.0445449,-0.0223 0.0668174,-0.0334 0.0222724,-0.0111 0.0460982,-0.0196 0.0668174,-0.0334 0.0540998,-0.0361 0.0234466,-0.0668 0.10022608,-0.0668 0.0111362,0 0.0255342,-0.008 0.0334087,0 0.015749,0.0158 -0.015749,0.0511 0,0.0668 0.007875,0.008 0.0241428,-0.006 0.0334087,0 0.0262079,0.0175 0.041619,0.0479 0.0668174,0.0668 0.01992108,0.0149 0.04454492,0.0223 0.06681738,0.0334 0.15669865,0.0784 -0.03937252,-0.0157 0.16704345,0.0668 0.0684458,0.0274 0.1305687,0.0769 0.20045215,0.10023 0.0188492,0.006 0.078273,0 0.10022607,0"
           id="path4549"
           inkscape:connector-curvature="0" />
        <path
           style="fill:none;stroke:#000000;stroke-width:0.26458332px;stroke-linecap:butt;stroke-linejoin:miter;stroke-opacity:1"
           d="m 0.43431391,286.14215 c 0.0138385,0.0421 0.0817048,0.49026 0,0"
           id="path4551"
           inkscape:connector-curvature="0" />
        <path
           style="fill:none;stroke:#000000;stroke-width:0.26458332px;stroke-linecap:butt;stroke-linejoin:miter;stroke-opacity:1"
           d="m -4.5435818,288.2469 c 0.066817,-0.0111 0.1330491,-0.0267 0.200452,-0.0334 0.044324,-0.004 0.08909,0 0.1336347,0 0.055681,0 0.1113623,0 0.1670436,0 0.144771,0 0.289542,0 0.434313,0 0.077953,0 0.1566905,-0.011 0.2338607,0 0.080258,0.0115 0.1559073,0.0446 0.233861,0.0668 0.08909,0 0.1783768,-0.006 0.2672694,0 0.1681485,0.0112 0.3329819,0.0556 0.5011304,0.0668 0.077781,0.005 0.1559072,0 0.2338608,0 0.077954,0 0.1559072,0 0.2338608,0 0.055681,0 0.1117923,0.007 0.1670435,0 0.034944,-0.004 0.066817,-0.0223 0.100226,-0.0334 0.033409,-0.0111 0.070029,-0.0153 0.1002261,-0.0334 0.027009,-0.0162 0.044545,-0.0445 0.066817,-0.0668 0.011136,-0.0111 0.026365,-0.0193 0.033409,-0.0334 0.00498,-0.01 0,-0.0223 0,-0.0334 0,-0.0408 -0.012964,-0.077 0.033409,-0.10023 0.00996,-0.005 0.023448,-0.005 0.033409,0 0.014086,0.007 0.020305,0.0247 0.033409,0.0334 0.020719,0.0138 0.044545,0.0223 0.066817,0.0334 0.022272,0.0111 0.043697,0.0242 0.066817,0.0334 0.1001283,0.0401 0.1229841,0.0351 0.23386087,0.0668 0.002999,8.5e-4 0.19969384,0.0667 0.20045214,0.0668 0.0440972,0.006 0.0890898,0 0.13363477,0 0.0334087,0 0.0668174,0 0.10022607,0 0.0445449,0 0.0890898,0 0.13363477,0 0.0445449,0 0.0894338,0.006 0.13363477,0 0.0647945,-0.008 0.24260591,-0.0567 0.3006782,-0.10022 0.02519841,-0.0189 0.04454492,-0.0446 0.06681738,-0.0668 0.0111362,-0.0111 0.0222725,-0.0223 0.0334087,-0.0334 0.0111362,-0.0111 0.0263655,-0.0193 0.0334087,-0.0334 0.00498,-0.01 -0.00498,-0.0234 0,-0.0334 0.007043,-0.0141 0.0263655,-0.0193 0.0334087,-0.0334 0.00498,-0.01 -0.007875,-0.0255 0,-0.0334 0.007875,-0.008 0.0234482,0.005 0.0334087,0 0.10188184,-0.0509 -0.0611026,-0.0265 0.10022608,-0.0668 0.0216075,-0.005 0.0456878,0.007 0.0668174,0 0.0149408,-0.005 0.0184679,-0.0284 0.0334087,-0.0334 0.001519,-5e-4 0.16224112,-0.002 0.16704344,0 0.0383003,0.0192 0.0464718,0.0697 0.0668174,0.10022 0.017472,0.0262 0.052731,0.0387 0.0668174,0.0668 0.0230412,0.0461 -0.0404598,0.0299 0.0334087,0.0668 0.0653897,0.0327 0.01699,-0.0504 0.0334087,-0.0668 0.007875,-0.008 0.0222724,0 0.0334087,0 0.0111363,0 0.0222724,0 0.0334087,0 0.0111363,0 0.0234482,-0.005 0.0334087,0 0.0140864,0.007 0.0203047,0.0247 0.0334087,0.0334 0.0207193,0.0138 0.0445449,0.0223 0.0668174,0.0334"
           id="path4553"
           inkscape:connector-curvature="0" />
        <path
           style="fill:none;stroke:#000000;stroke-width:0.26458332px;stroke-linecap:butt;stroke-linejoin:miter;stroke-opacity:1"
           d="m -4.1092688,289.95075 c 0.1914612,-0.0383 0.1162542,-0.008 0.2338607,-0.0668 0.022273,-0.0111 0.0424,-0.0285 0.066817,-0.0334 0.03276,-0.007 0.067466,0.007 0.100226,0 0.024418,-0.005 0.043697,-0.0242 0.066818,-0.0334 0.032697,-0.0131 0.067529,-0.0203 0.1002261,-0.0334 0.046241,-0.0185 0.08909,-0.0445 0.1336347,-0.0668 0.022273,-0.0111 0.042659,-0.0274 0.066817,-0.0334 0.021609,-0.005 0.045688,0.007 0.066817,0 0.029882,-0.01 0.038645,-0.0527 0.066817,-0.0668 0.00996,-0.005 0.023447,0.005 0.033409,0 0.014086,-0.007 0.019322,-0.0264 0.033409,-0.0334 0.019921,-0.01 0.051068,0.0157 0.066817,0 0.00787,-0.008 -0.011136,-0.0334 0,-0.0334 0.011136,0 -0.00498,0.0234 0,0.0334 0.014086,0.0282 0.049345,0.0406 0.066817,0.0668 0.013814,0.0207 0.019595,0.0461 0.033409,0.0668 0.00874,0.0131 0.022273,0.0223 0.033409,0.0334 0.011136,0.0111 0.020304,0.0247 0.033409,0.0334 0.020719,0.0138 0.046098,0.0196 0.066817,0.0334 0.026207,0.0175 0.040609,0.0494 0.066817,0.0668 0.020719,0.0138 0.046098,0.0196 0.066817,0.0334 0.013105,0.009 0.018468,0.0284 0.033409,0.0334 0.015293,0.005 0.148396,0 0.1670433,0 0.044545,0 0.089955,0.009 0.1336348,0 0.034532,-0.007 0.065694,-0.0265 0.1002261,-0.0334 0.1784824,-0.0357 -0.075189,0.0635 0.1670434,-0.0334 0.02312,-0.009 0.044545,-0.0223 0.066817,-0.0334 0.066817,-0.0334 0.1336347,-0.0668 0.2004521,-0.10023 0.022272,-0.0111 0.042659,-0.0274 0.066817,-0.0334 0.034608,-0.009 0.095326,0 0.1336347,0 0.011136,0 0.025534,-0.008 0.033409,0 0.00787,0.008 -0.00787,0.0255 0,0.0334 0.00787,0.008 0.023448,-0.005 0.033409,0 0.014086,0.007 0.022272,0.0223 0.033409,0.0334 0.051356,0.0514 0.095389,0.10975 0.1670435,0.13364 0.00187,6.3e-4 0.1606146,0.003 0.1670434,0 0.021281,-0.0106 0.140792,-0.14079 0.1670435,-0.16705 0.011136,-0.0111 0.022272,-0.0223 0.033409,-0.0334 0.0111363,-0.0111 0.0193222,-0.0264 0.0334087,-0.0334 0.0442094,-0.0221 0.0722861,0.0482 0.10022607,0.0668 0.0414384,0.0276 0.0890898,0.0446 0.13363477,0.0668 0.0735217,0.0368 0.15155248,0.0865 0.23386084,0.10023 0.0329541,0.005 0.0668174,0 0.10022607,0 0.0556811,0 0.1113623,0 0.16704345,0 0.0222725,0 0.0445449,0 0.0668174,0 0.0222725,0 0.0456879,0.007 0.0668174,0 0.01494083,-0.005 0.01932236,-0.0264 0.03340869,-0.0334 0.0027668,-10e-4 0.09592738,-10e-4 0.10022607,0 0.02362351,0.008 0.04454492,0.0223 0.06681738,0.0334 0.0445449,0.0223 0.0890898,0.0445 0.13363476,0.0668 0.0222725,0.0111 0.0431939,0.0255 0.0668174,0.0334 0.004299,10e-4 0.0974592,10e-4 0.10022607,0 0.00887,-0.004 0.0957909,-0.0913 0.10022607,-0.10022 0.0230412,-0.0461 -0.0404598,-0.0299 0.0334087,-0.0668 0.009961,-0.005 0.0234482,0.005 0.0334087,0 0.0140864,-0.007 0.0203047,-0.0247 0.0334087,-0.0334 0.0207193,-0.0138 0.0445449,-0.0223 0.0668174,-0.0334 0.0222724,-0.0111 0.0426595,-0.0274 0.0668174,-0.0334 0.0216075,-0.005 0.0452099,0.005 0.0668174,0 0.0241578,-0.006 0.0426595,-0.0274 0.0668174,-0.0334 0.0216075,-0.005 0.0445449,0 0.0668174,0 0.0445449,0 0.0890899,0 0.13363476,0"
           id="path4555"
           inkscape:connector-curvature="0" />
        <path
           style="fill:none;stroke:#000000;stroke-width:0.26458332px;stroke-linecap:butt;stroke-linejoin:miter;stroke-opacity:1"
           d="m -3.4410951,291.72141 c -0.026784,0.14081 -0.1162545,0.008 -0.1670434,0.0334 -0.014086,0.007 -0.019322,0.0264 -0.033409,0.0334 -0.020997,0.0105 -0.1126368,-0.0105 -0.1336349,0 -0.014086,0.007 -0.017661,0.0334 -0.033409,0.0334 -0.011136,0 -0.00618,-0.0241 0,-0.0334 0.017473,-0.0262 0.041619,-0.0479 0.066817,-0.0668 0.039842,-0.0299 0.093793,-0.0369 0.1336349,-0.0668 0.025199,-0.0189 0.039808,-0.0506 0.066817,-0.0668 0.1122949,-0.0674 0.076898,8e-4 0.1670433,-0.0668 0.025199,-0.0189 0.041619,-0.0479 0.066817,-0.0668 0.01992,-0.0149 0.044545,-0.0223 0.066817,-0.0334 0.044545,-0.0223 0.087394,-0.0483 0.133635,-0.0668 0.032697,-0.0131 0.067529,-0.0203 0.100226,-0.0334 0.077897,-0.0312 0.07207,-0.051 0.1670434,-0.0668 0.032954,-0.005 0.066817,0 0.100226,0 0.077954,0 0.1559073,0 0.2338609,0 0.044545,0 0.08909,0 0.1336348,0 0.044545,0 0.089362,-0.005 0.1336347,0 0.056437,0.006 0.1116118,0.0211 0.1670435,0.0334 0.044822,0.01 0.088812,0.0235 0.1336347,0.0334 0.055432,0.0123 0.1131736,0.0155 0.1670435,0.0334 0.047247,0.0158 0.088124,0.0466 0.1336347,0.0668 0.054802,0.0244 0.1108914,0.0458 0.1670435,0.0668 0.020875,0.008 0.1415421,0.0413 0.1670435,0.0668 0.017608,0.0176 0.019596,0.0461 0.033409,0.0668 0.00874,0.0131 0.026365,0.0193 0.033409,0.0334 0.023041,0.0461 -0.04046,0.0299 0.033409,0.0668 0.00996,0.005 0.022272,0 0.033409,0 0.071337,0 0.1019765,-0.0408 0.1670435,-0.0668 0.0798809,-0.0319 0.14938324,-0.0457 0.23386081,-0.0668 0.0445449,-0.0111 0.0880735,-0.0277 0.13363477,-0.0334 0.0442009,-0.006 0.0890898,0 0.13363477,0 0.1113623,0 0.2227246,0 0.3340869,0 0.0222725,0 0.0445449,0 0.0668174,0 0.01113623,0 0.02553419,-0.008 0.03340869,0 0.015749,0.0158 -0.01574901,0.0511 0,0.0668 0.0078745,0.008 0.02344814,-0.005 0.03340869,0 0.01408634,0.007 0.01932235,0.0264 0.03340869,0.0334 0.01573989,0.008 0.26632643,-0.004 0.30067821,0 0.0564365,0.006 0.1104928,0.0283 0.16704347,0.0334 0.066543,0.006 0.13363474,0 0.20045214,0 0.0556811,0 0.1113623,0 0.16704344,0 0.0445449,0 0.0894338,-0.006 0.13363477,0 0.0455613,0.006 0.0883438,0.0259 0.13363475,0.0334 0.021969,0.004 0.044545,0 0.066817,0 0.022272,0 0.045688,0.007 0.066817,0 0.014941,-0.005 0.020305,-0.0247 0.033409,-0.0334 0.078023,-0.052 0.1892471,-0.0816 0.2672696,-0.13364 0.013104,-0.009 0.018468,-0.0284 0.033409,-0.0334 0.02113,-0.007 0.045688,0.007 0.066817,0 0.014941,-0.005 0.022272,-0.0223 0.033409,-0.0334 0.049158,-0.0492 0.01766,-0.0334 0.1002261,-0.0334"
           id="path4557"
           inkscape:connector-curvature="0" />
      </g>
      <g
         transform="rotate(36.643081,11.698328,293.59659)"
         id="g4541">
        <path
           style="fill:#50a3ff;fill-opacity:1;stroke:#000ecb;stroke-width:0.26458332;stroke-linecap:butt;stroke-linejoin:round;stroke-miterlimit:4;stroke-dasharray:none;stroke-opacity:1"
           d="m 5.278573,285.17331 h 3.4745038 v 8.68626 l -1.6896467,2.50409 -1.7848571,-2.50409 z"
           id="rect4526"
           inkscape:connector-curvature="0"
           sodipodi:nodetypes="cccccc" />
        <path
           style="fill:#000ecb;fill-opacity:1;stroke:none;stroke-width:0.26458332;stroke-linecap:butt;stroke-linejoin:round;stroke-miterlimit:4;stroke-dasharray:none;stroke-opacity:1"
           d="m 6.2366071,295.11011 h 1.6300223 l -0.8031993,1.25355 z"
           id="rect4531"
           inkscape:connector-curvature="0"
           sodipodi:nodetypes="cccc" />
        <path
           style="fill:none;stroke:#000ecb;stroke-width:0.26458332px;stroke-linecap:butt;stroke-linejoin:miter;stroke-opacity:1"
           d="M 5.2785729,293.85957 H 8.7530767"
           id="path4536"
           inkscape:connector-curvature="0" />
      </g>
    </g>
  </g>
</svg>
